<svg width="399" height="96" viewBox="0 0 399 96" fill="none" xmlns="http://www.w3.org/2000/svg">
<g clip-path="url(#clip0_297_135)">
<path d="M154.61 77.7747C150.229 77.7747 146.583 77.2577 143.68 76.2235C140.776 75.1893 138.479 73.85 136.806 72.2055C135.132 70.561 133.979 68.8063 133.356 66.9329C132.732 65.068 132.545 63.2709 132.801 61.5331C132.886 61.033 133.142 60.6092 133.569 60.2786C133.996 59.948 134.457 59.7785 134.961 59.7785H145.917C146.591 59.7785 147.104 59.9056 147.454 60.1514C147.804 60.4057 148.094 60.8041 148.333 61.3636C148.59 62.4232 149.102 63.2879 149.853 63.9575C150.605 64.6272 151.578 65.0849 152.765 65.3392C153.952 65.5936 155.284 65.7122 156.744 65.7122C159.614 65.7122 161.962 65.0595 163.798 63.7456C165.634 62.4317 166.752 60.6346 167.162 58.3459C167.589 55.9469 167.137 54.2346 165.805 53.2004C164.472 52.1663 162.397 51.6492 159.588 51.6492H150.229C149.614 51.6492 149.136 51.4542 148.82 51.0643C148.496 50.6743 148.385 50.1742 148.496 49.5554L149.324 44.8677C149.444 44.1981 149.691 43.6132 150.058 43.113C150.426 42.6129 150.801 42.2484 151.177 42.028L167.06 30.3978H143.628C143.065 30.3978 142.612 30.2028 142.254 29.8129C141.903 29.423 141.784 28.9228 141.886 28.304L143.287 20.4375C143.398 19.8272 143.697 19.3186 144.183 18.9287C144.67 18.5387 145.2 18.3438 145.763 18.3438H184.531C185.146 18.3438 185.632 18.5387 185.983 18.9287C186.333 19.3186 186.452 19.8187 186.35 20.4375L185.086 27.5496C184.975 28.1599 184.736 28.7109 184.377 29.1771C184.01 29.6518 183.634 30.0248 183.25 30.3045L168.349 42.1043L168.913 42.2738C172.047 42.6637 174.762 43.5114 177.059 44.8253C179.356 46.1392 181.021 47.9618 182.072 50.3014C183.113 52.641 183.318 55.6248 182.669 59.2529C181.995 63.042 180.33 66.3226 177.682 69.086C175.027 71.8494 171.714 73.9771 167.734 75.486C163.755 76.9949 159.383 77.7408 154.61 77.7408V77.7747Z" fill="#504F4F" fill-opacity="0.25"/>
<path d="M190.918 76.9438C190.295 76.9438 189.825 76.7488 189.501 76.3589C189.176 75.969 189.065 75.4688 189.176 74.85L198.834 20.4712C198.945 19.8609 199.227 19.3523 199.688 18.9623C200.149 18.5724 200.687 18.3774 201.31 18.3774H223.222C228.73 18.3774 233.264 19.259 236.825 21.0137C240.386 22.7684 242.913 25.3369 244.39 28.7107C245.868 32.0845 246.252 36.2551 245.543 41.214C245.159 43.6723 244.809 45.8169 244.484 47.6564C244.16 49.4959 243.75 51.6151 243.272 54.014C242.128 59.2018 240.249 63.4996 237.653 66.8988C235.057 70.298 231.71 72.8241 227.628 74.4686C223.546 76.1131 218.747 76.9353 213.24 76.9353H190.91L190.918 76.9438ZM206.033 64.8982H214.965C217.381 64.8982 219.456 64.5253 221.19 63.7708C222.923 63.0164 224.34 61.8296 225.442 60.2106C226.544 58.5915 227.355 56.4723 227.876 53.8529C228.277 52.2339 228.602 50.7843 228.858 49.5043C229.114 48.2243 229.344 46.9359 229.541 45.6559C229.737 44.3759 229.925 42.9517 230.087 41.392C230.651 37.6029 230.147 34.8225 228.576 33.0678C227.005 31.3131 224.366 30.4315 220.66 30.4315H212.147L206.024 64.8982H206.033Z" fill="#504F4F" fill-opacity="0.25"/>
<path d="M268.215 77.7749C264.056 77.7749 260.512 77.0205 257.575 75.5201C254.637 74.0112 252.485 71.8242 251.111 68.9505C249.736 66.0769 249.326 62.6353 249.872 58.6173C249.975 57.7272 250.146 56.5998 250.393 55.2266C250.641 53.8533 250.863 52.7344 251.076 51.8358C251.965 47.7669 253.596 44.2915 255.961 41.4178C258.326 38.5442 261.255 36.3571 264.756 34.8483C268.257 33.3394 272.083 32.585 276.241 32.585C280.118 32.585 283.337 33.1275 285.899 34.2125C288.461 35.2975 290.468 36.6538 291.919 38.2729C293.371 39.892 294.387 41.5534 294.951 43.2488C295.523 44.9526 295.719 46.4446 295.548 47.7246C295.506 48.284 295.224 48.7672 294.694 49.1911C294.174 49.6064 293.627 49.8183 293.063 49.8183H282.364C281.749 49.8183 281.296 49.6827 281.006 49.403C280.716 49.1232 280.485 48.7079 280.306 48.1484C279.939 46.4191 279.298 45.19 278.385 44.4695C277.471 43.7489 276.207 43.3844 274.576 43.3844C272.33 43.3844 270.469 44.1134 269.009 45.563C267.54 47.0125 266.49 49.2419 265.841 52.2597C265.388 54.4891 265.038 56.4726 264.782 58.2019C264.346 61.2705 264.611 63.4999 265.576 64.8986C266.532 66.2973 268.138 66.9924 270.383 66.9924C272.125 66.9924 273.569 66.6279 274.704 65.9073C275.84 65.1868 276.873 63.9577 277.804 62.2284C278.18 61.6689 278.564 61.2536 278.957 60.9738C279.341 60.6941 279.845 60.5585 280.46 60.5585H291.159C291.723 60.5585 292.192 60.7704 292.568 61.1858C292.944 61.6011 293.055 62.0928 292.901 62.6523C292.679 63.6017 292.201 64.7036 291.475 65.9582C290.749 67.2128 289.725 68.5352 288.41 69.9338C287.095 71.3325 285.472 72.621 283.551 73.8247C281.621 75.0284 279.384 75.9863 276.848 76.7068C274.303 77.4273 271.434 77.7918 268.232 77.7918L268.215 77.7749Z" fill="#504F4F" fill-opacity="0.25"/>
<path d="M318.519 77.7745C313.796 77.7745 309.954 77.0201 306.991 75.5197C304.028 74.0108 301.936 71.8492 300.723 69.0349C299.51 66.2206 299.135 62.8553 299.604 58.956C299.749 57.8371 299.946 56.574 300.194 55.1499C300.441 53.7258 300.697 52.4882 300.936 51.4286C301.867 47.4699 303.473 44.0961 305.77 41.3073C308.058 38.5184 310.953 36.3737 314.454 34.8649C317.955 33.356 321.977 32.6016 326.528 32.6016C331.08 32.6016 334.922 33.356 337.885 34.8649C340.848 36.3737 342.983 38.5184 344.281 41.3073C345.579 44.0961 345.997 47.4699 345.519 51.4286C345.383 52.4882 345.195 53.7258 344.939 55.1499C344.682 56.574 344.435 57.8371 344.179 58.956C343.256 62.8638 341.694 66.2206 339.482 69.0349C337.27 71.8492 334.41 74.0108 330.917 75.5197C327.416 77.0286 323.283 77.7745 318.51 77.7745H318.519ZM320.329 67.5685C322.856 67.5685 324.829 66.814 326.255 65.3051C327.672 63.7963 328.731 61.5414 329.44 58.5322C329.645 57.693 329.867 56.5825 330.115 55.1838C330.362 53.7936 330.533 52.6747 330.627 51.8355C330.986 48.8771 330.721 46.6392 329.841 45.1049C328.962 43.5706 327.254 42.8077 324.726 42.8077C322.199 42.8077 320.295 43.579 318.843 45.1049C317.391 46.6392 316.35 48.8855 315.709 51.8355C315.504 52.6747 315.282 53.7851 315.035 55.1838C314.787 56.5825 314.616 57.693 314.522 58.5322C314.095 61.5414 314.343 63.8047 315.257 65.3051C316.17 66.814 317.861 67.5685 320.329 67.5685Z" fill="#504F4F" fill-opacity="0.25"/>
<path d="M351.454 76.9441C350.839 76.9441 350.361 76.7492 350.036 76.3592C349.712 75.9693 349.61 75.4692 349.712 74.8504L356.697 35.5349C356.808 34.9245 357.09 34.4159 357.551 34.026C358.012 33.636 358.55 33.4411 359.173 33.4411H368.865C369.48 33.4411 369.95 33.636 370.274 34.026C370.599 34.4159 370.701 34.916 370.599 35.5349L370.035 38.7137C371.803 36.9844 373.972 35.5349 376.542 34.3651C379.112 33.1953 381.998 32.6104 385.201 32.6104C388.403 32.6104 391.212 33.3394 393.449 34.7889C395.687 36.2384 397.275 38.3746 398.214 41.1889C399.145 44.0032 399.248 47.4533 398.53 51.5221L394.38 74.8673C394.269 75.4776 393.97 75.9862 393.484 76.3762C392.997 76.7661 392.467 76.9611 391.904 76.9611H381.281C380.718 76.9611 380.265 76.7661 379.906 76.3762C379.556 75.9862 379.437 75.4861 379.539 74.8673L383.595 52.0307C384.056 49.4114 383.792 47.3855 382.776 45.9613C381.768 44.5372 380.017 43.8252 377.55 43.8252C375.244 43.8252 373.28 44.5372 371.649 45.9613C370.018 47.3855 368.976 49.4029 368.507 52.0307L364.451 74.8673C364.34 75.4776 364.041 75.9862 363.554 76.3762C363.067 76.7661 362.538 76.9611 361.974 76.9611H351.437L351.454 76.9441Z" fill="#504F4F" fill-opacity="0.25"/>
<path d="M19.1532 48.8861C19.1532 45.0376 18.8287 42.0453 19.23 39.1462C19.8619 34.5687 21.9711 30.6355 26.0528 28.0839C29.0586 26.2021 32.1327 24.422 35.2665 22.752C39.9545 20.2598 44.4803 17.2082 50.2527 18.0135C52.9511 18.3865 55.2994 19.5224 57.6135 20.8532C60.0044 22.2265 62.5149 23.4047 64.8974 24.778C68.7485 26.9904 72.8132 28.8469 75.2895 32.9157C76.9803 35.7046 77.5268 38.7139 77.6378 41.7655C77.8256 47.1398 78.0306 52.5565 77.2706 57.8969C76.7582 61.525 74.9309 64.6784 72.0702 67.018C68.7827 69.7051 64.8205 71.3496 61.1316 73.401C58.6467 74.7827 56.2387 76.4018 53.5915 77.3682C50.5516 78.4871 47.2384 78.3091 44.0619 77.6903C40.6889 77.0291 37.8966 74.9692 35.0104 73.2739C30.9799 70.9088 26.4115 69.2898 23.1837 65.7125C21.2367 63.551 20.0754 60.9825 19.4606 58.1258C18.7348 54.752 19.4094 51.3613 19.1446 48.8945L19.1532 48.8861Z" fill="#97CB9D" fill-opacity="0.1"/>
<path d="M51.3715 95.949C40.1853 95.949 31.5351 96.11 22.902 95.8896C17.8725 95.7625 13.3553 93.8721 9.33335 90.7188C6.55813 88.5402 4.4575 85.8531 2.73259 82.8947C1.85306 81.3943 1.38341 79.6226 0.922293 77.9272C-0.529361 72.5699 0.170849 67.0939 0.15377 61.6602C0.145231 59.2782 1.37487 57.5913 4.0647 57.9135C5.53343 58.0915 6.78868 59.0409 6.83992 60.66C6.95093 64.4321 6.74599 68.2043 6.92531 71.968C7.10463 75.5961 8.25742 78.9021 10.5118 81.9198C12.6038 84.7256 15.2681 86.6499 18.3763 87.9807C20.8185 89.0319 23.4998 89.0658 26.1555 88.8962C26.5397 88.8708 27.1802 88.8454 27.5644 88.8454C43.1484 88.8454 58.7408 88.9725 74.3162 88.7691C78.3467 88.7182 81.7282 86.4973 84.5376 83.5219C87.7227 80.1482 89.2768 76.1556 89.3707 71.612C89.439 68.4586 89.217 65.2968 89.1829 62.1349C89.1487 59.2698 90.7285 57.71 93.5805 57.905C95.2457 58.0152 96.2704 59.2274 96.3216 60.7362C96.4582 65.2544 96.5692 69.798 96.296 74.3076C96.1337 77.0541 95.1517 79.6989 93.9477 82.2674C92.5644 85.2088 90.7199 87.7688 88.2777 89.8033C84.4266 93.0075 80.1228 95.3386 74.9054 95.7201C66.2126 96.3558 57.5197 95.6947 51.3715 95.949Z" fill="#504F4F" fill-opacity="0.25"/>
<path d="M48.6987 0.118567C57.3147 0.118567 65.9392 -0.203552 74.5296 0.220289C81.2072 0.550885 86.7149 3.81446 90.9418 9.07009C93.2132 11.9013 94.7332 15.0293 95.6213 18.5641C97.0302 24.1588 96.2361 29.8044 96.2531 35.4245C96.2531 37.2725 94.4002 38.3999 92.3678 38.1117C90.7369 37.8828 89.6353 36.8232 89.5755 35.0939C89.4048 30.3723 89.4645 25.6338 89.0888 20.9207C88.9095 18.6489 87.7311 16.5551 86.4075 14.6055C84.4008 11.6386 81.7366 9.46002 78.4661 8.15459C76.5619 7.40016 74.4186 6.84069 72.3862 6.82373C56.085 6.72201 39.7923 6.6542 23.4911 6.84916C18.9739 6.90002 15.1228 9.05314 11.8864 12.3591C7.22404 17.1146 6.54091 22.9127 6.87394 29.0839C6.97641 30.9572 6.85686 32.8391 6.89956 34.7125C6.94225 36.6452 5.85778 37.798 4.12434 38.0778C1.83584 38.4508 0.324417 37.0012 0.213408 34.9668C-0.017149 30.7453 -0.0342273 26.4815 0.264643 22.26C0.597669 17.5469 2.2628 13.1305 5.23442 9.42612C7.82178 6.20493 11.0496 3.71274 15.0032 2.01738C20.5963 -0.373089 26.42 0.11009 32.2267 0.0337987C37.7173 -0.0340158 43.208 0.0168451 48.6901 0.0168451C48.6901 0.0507524 48.6901 0.0846597 48.6901 0.118567H48.6987Z" fill="#504F4F" fill-opacity="0.25"/>
<path d="M67.374 34.5599C66.5371 35.0516 65.6832 35.5517 64.8378 36.0434C61.815 37.7896 58.7836 39.5358 55.7607 41.2821C53.4722 42.6044 51.2862 44.1642 48.8611 45.1814C47.1874 45.8935 45.9407 44.1303 44.5659 43.3758C41.5003 41.7144 38.5287 39.8919 35.4973 38.1626C33.4565 37.0013 31.3815 35.8823 29.3321 34.7295C29.2211 34.6701 29.1357 34.3056 29.1954 34.2463C29.6053 33.8564 30.0152 33.424 30.5019 33.1528C33.465 31.4659 36.3683 29.6688 39.4339 28.2023C42.4909 26.7358 45.2234 24.3369 49.0148 24.7268C51.4655 24.9811 53.3954 26.2781 55.4362 27.414C57.3746 28.4905 59.3386 29.5162 61.2685 30.6013C63.241 31.7117 65.1965 32.8561 67.1519 34.0005C67.2373 34.0513 67.2459 34.2293 67.374 34.543V34.5599Z" fill="#111111" fill-opacity="0.1"/>
<path d="M51.5679 61.0079C51.5679 58.7785 51.8497 56.5067 51.4996 54.3282C51.0129 51.3189 53.0964 50.5644 55.0348 49.4879C57.6051 48.0638 60.1327 46.5803 62.6773 45.0969C65.1452 43.6643 67.5959 42.1978 70.0637 40.7737C70.2857 40.6466 70.6187 40.5109 70.6102 41.045C70.5846 46.1226 70.6273 51.2002 70.5334 56.2778C70.4821 58.8209 67.4251 62.2879 65.111 63.339C62.5834 64.4834 60.2437 66.0177 57.8186 67.3825C55.8631 68.476 53.8991 69.561 51.9266 70.6206C51.9266 70.6206 51.585 70.2222 51.585 70.0103C51.5594 67.0095 51.5679 64.0087 51.5679 61.0079Z" fill="#111111" fill-opacity="0.1"/>
<path d="M44.8732 61.0249C44.8732 63.4577 44.8903 65.8821 44.8732 68.3149C44.8732 69.0439 44.7622 69.7729 44.6939 70.5019C43.9937 70.1713 43.2764 69.8747 42.6018 69.5017C39.8864 68.0098 37.1709 66.5178 34.4725 64.9751C31.3301 63.178 27.7522 61.8047 26.3945 58.058C25.9078 56.7017 25.8736 55.1335 25.848 53.6585C25.7797 49.988 25.8224 46.3176 25.8395 42.6471C25.8395 41.9944 25.9163 41.3417 25.9676 40.689C26.6251 41.0111 27.2997 41.2993 27.923 41.6553C30.5275 43.1472 33.1148 44.6731 35.7193 46.1735C38.6738 47.8773 41.6369 49.5557 44.5743 51.2765C44.7707 51.3867 44.8647 51.8021 44.8732 52.0733C44.8903 55.0572 44.8903 58.041 44.8903 61.0249H44.8732Z" fill="#111111" fill-opacity="0.1"/>
</g>
<defs>
<clipPath id="clip0_297_135">
<rect width="399" height="96" fill="white"/>
</clipPath>
</defs>
</svg>
