<svg width="258" height="62" viewBox="0 0 258 62" fill="none" xmlns="http://www.w3.org/2000/svg">
<g clip-path="url(#clip0_291_36)">
<path d="M99.9732 50.2297C97.1406 50.2297 94.7829 49.8957 92.9056 49.2278C91.0282 48.5599 89.543 47.6949 88.4607 46.6329C87.3785 45.5708 86.6331 44.4375 86.23 43.2277C85.8269 42.0232 85.7055 40.8626 85.8711 39.7403C85.9263 39.4173 86.092 39.1436 86.3681 38.9301C86.6441 38.7166 86.9423 38.6071 87.2681 38.6071H94.3522C94.7884 38.6071 95.1197 38.6892 95.3461 38.848C95.5725 39.0122 95.7602 39.2695 95.9148 39.6308C96.0805 40.3152 96.4118 40.8736 96.8977 41.3061C97.3836 41.7386 98.013 42.0342 98.7805 42.1984C99.548 42.3627 100.409 42.4393 101.354 42.4393C103.209 42.4393 104.727 42.0178 105.914 41.1692C107.101 40.3206 107.825 39.16 108.09 37.6819C108.366 36.1326 108.073 35.0267 107.212 34.3588C106.351 33.6909 105.009 33.3569 103.192 33.3569H97.1406C96.7431 33.3569 96.4338 33.231 96.2296 32.9792C96.0197 32.7273 95.9479 32.4043 96.0197 32.0047L96.5553 28.9772C96.6326 28.5447 96.7927 28.167 97.0302 27.844C97.2676 27.521 97.5105 27.2856 97.7535 27.1432L108.024 19.6321H92.8724C92.508 19.6321 92.2154 19.5062 91.9835 19.2543C91.7571 19.0025 91.6798 18.6795 91.7461 18.2798L92.6516 13.1994C92.7234 12.8052 92.9166 12.4767 93.2314 12.2249C93.5461 11.9731 93.8884 11.8472 94.2528 11.8472H119.321C119.718 11.8472 120.033 11.9731 120.259 12.2249C120.486 12.4767 120.563 12.7998 120.497 13.1994L119.68 17.7926C119.608 18.1868 119.453 18.5426 119.221 18.8437C118.984 19.1503 118.741 19.3912 118.492 19.5718L108.857 27.1925L109.222 27.302C111.248 27.5538 113.004 28.1013 114.489 28.9499C115.975 29.7984 117.051 30.9755 117.73 32.4865C118.404 33.9975 118.537 35.9245 118.117 38.2677C117.681 40.7148 116.604 42.8335 114.892 44.6182C113.175 46.4029 111.033 47.7771 108.46 48.7515C105.887 49.726 103.06 50.2078 99.9732 50.2078V50.2297Z" fill="#504F4F"/>
<path d="M123.451 49.6932C123.048 49.6932 122.744 49.5673 122.534 49.3155C122.324 49.0637 122.253 48.7407 122.324 48.341L128.569 13.2214C128.641 12.8272 128.823 12.4987 129.121 12.2469C129.42 11.9951 129.767 11.8691 130.17 11.8691H144.339C147.9 11.8691 150.832 12.4385 153.135 13.5717C155.437 14.705 157.071 16.3638 158.027 18.5427C158.982 20.7216 159.23 23.4151 158.772 26.6178C158.524 28.2054 158.297 29.5905 158.087 30.7785C157.878 31.9664 157.613 33.3351 157.303 34.8844C156.564 38.2349 155.349 41.0105 153.67 43.2058C151.992 45.4011 149.827 47.0326 147.188 48.0947C144.549 49.1567 141.446 49.6878 137.884 49.6878H123.445L123.451 49.6932ZM133.224 41.9138H138.999C140.562 41.9138 141.904 41.6729 143.025 41.1857C144.146 40.6985 145.062 39.932 145.774 38.8864C146.487 37.8407 147.011 36.4721 147.348 34.7804C147.608 33.7347 147.817 32.7986 147.983 31.9719C148.149 31.1453 148.298 30.3131 148.425 29.4864C148.552 28.6598 148.673 27.74 148.778 26.7327C149.143 24.2856 148.817 22.4899 147.801 21.3566C146.785 20.2234 145.079 19.654 142.682 19.654H137.177L133.218 41.9138H133.224Z" fill="#504F4F"/>
<path d="M173.432 50.2296C170.743 50.2296 168.451 49.7424 166.552 48.7734C164.653 47.7989 163.261 46.3864 162.372 44.5305C161.483 42.6746 161.218 40.4519 161.571 37.857C161.638 37.2821 161.748 36.554 161.908 35.6671C162.068 34.7802 162.212 34.0576 162.35 33.4773C162.924 30.8495 163.979 28.6049 165.508 26.749C167.038 24.8931 168.932 23.4806 171.196 22.5062C173.459 21.5317 175.933 21.0444 178.622 21.0444C181.129 21.0444 183.21 21.3948 184.867 22.0956C186.523 22.7963 187.821 23.6722 188.76 24.7179C189.698 25.7636 190.355 26.8366 190.72 27.9315C191.09 29.0319 191.217 29.9954 191.106 30.8221C191.079 31.1834 190.896 31.4955 190.554 31.7692C190.217 32.0375 189.864 32.1743 189.499 32.1743H182.581C182.183 32.1743 181.891 32.0867 181.703 31.9061C181.515 31.7254 181.366 31.4571 181.25 31.0958C181.013 29.979 180.599 29.1852 180.008 28.7198C179.417 28.2545 178.6 28.0191 177.545 28.0191C176.093 28.0191 174.889 28.4899 173.945 29.4261C172.996 30.3622 172.316 31.8021 171.897 33.751C171.604 35.1908 171.378 36.4719 171.212 37.5887C170.931 39.5705 171.102 41.0103 171.726 41.9137C172.344 42.817 173.382 43.2659 174.834 43.2659C175.961 43.2659 176.894 43.0305 177.628 42.5651C178.363 42.0998 179.031 41.306 179.632 40.1892C179.875 39.8278 180.124 39.5596 180.378 39.3789C180.626 39.1983 180.952 39.1107 181.35 39.1107H188.268C188.633 39.1107 188.936 39.2475 189.179 39.5158C189.422 39.784 189.494 40.1016 189.395 40.4629C189.251 41.076 188.942 41.7877 188.472 42.598C188.003 43.4082 187.341 44.2623 186.49 45.1656C185.64 46.0689 184.591 46.901 183.348 47.6784C182.101 48.4558 180.654 49.0745 179.014 49.5398C177.369 50.0051 175.513 50.2405 173.443 50.2405L173.432 50.2296Z" fill="#504F4F"/>
<path d="M205.959 50.2296C202.906 50.2296 200.421 49.7424 198.505 48.7734C196.589 47.7989 195.237 46.4029 194.453 44.5853C193.668 42.7677 193.426 40.5943 193.729 38.076C193.823 37.3533 193.95 36.5376 194.11 35.6179C194.27 34.6982 194.436 33.8989 194.591 33.2145C195.192 30.6579 196.23 28.479 197.716 26.6778C199.196 24.8767 201.067 23.4916 203.331 22.5171C205.595 21.5427 208.196 21.0554 211.139 21.0554C214.082 21.0554 216.566 21.5427 218.482 22.5171C220.398 23.4916 221.779 24.8767 222.618 26.6778C223.457 28.479 223.728 30.6579 223.419 33.2145C223.33 33.8989 223.209 34.6982 223.043 35.6179C222.877 36.5376 222.717 37.3533 222.552 38.076C221.955 40.5998 220.945 42.7677 219.515 44.5853C218.085 46.4029 216.235 47.7989 213.977 48.7734C211.713 49.7479 209.04 50.2296 205.954 50.2296H205.959ZM207.13 43.6382C208.764 43.6382 210.04 43.151 210.962 42.1765C211.879 41.202 212.563 39.7458 213.021 37.8023C213.154 37.2603 213.298 36.5431 213.458 35.6398C213.618 34.742 213.728 34.0193 213.789 33.4773C214.021 31.5667 213.85 30.1214 213.281 29.1305C212.712 28.1396 211.608 27.6469 209.974 27.6469C208.339 27.6469 207.108 28.145 206.169 29.1305C205.231 30.1214 204.557 31.5722 204.143 33.4773C204.01 34.0193 203.867 34.7365 203.707 35.6398C203.547 36.5431 203.436 37.2603 203.375 37.8023C203.099 39.7458 203.259 41.2075 203.85 42.1765C204.441 43.151 205.534 43.6382 207.13 43.6382Z" fill="#504F4F"/>
<path d="M227.256 49.6933C226.858 49.6933 226.549 49.5674 226.339 49.3155C226.13 49.0637 226.063 48.7407 226.13 48.341L230.646 22.9498C230.718 22.5556 230.9 22.2271 231.198 21.9753C231.497 21.7235 231.844 21.5975 232.248 21.5975H238.514C238.912 21.5975 239.216 21.7235 239.426 21.9753C239.635 22.2271 239.702 22.5501 239.635 22.9498L239.271 25.0028C240.414 23.8859 241.816 22.9498 243.478 22.1943C245.14 21.4388 247.007 21.061 249.077 21.061C251.148 21.061 252.964 21.5319 254.411 22.468C255.858 23.4042 256.885 24.7838 257.492 26.6013C258.094 28.4189 258.16 30.6471 257.696 33.2749L255.013 48.352C254.941 48.7462 254.748 49.0746 254.433 49.3265C254.118 49.5783 253.776 49.7042 253.412 49.7042H246.543C246.178 49.7042 245.886 49.5783 245.654 49.3265C245.427 49.0746 245.35 48.7516 245.416 48.352L248.039 33.6034C248.337 31.9117 248.166 30.6033 247.509 29.6836C246.858 28.7638 245.726 28.3039 244.13 28.3039C242.639 28.3039 241.369 28.7638 240.315 29.6836C239.26 30.6033 238.586 31.9062 238.283 33.6034L235.66 48.352C235.588 48.7462 235.395 49.0746 235.08 49.3265C234.765 49.5783 234.423 49.7042 234.059 49.7042H227.245L227.256 49.6933Z" fill="#504F4F"/>
<path d="M12.3848 31.5721C12.3848 29.0867 12.175 27.1541 12.4345 25.2818C12.8431 22.3255 14.2069 19.7853 16.8462 18.1374C18.7898 16.9221 20.7775 15.7724 22.804 14.6939C25.8353 13.0844 28.7617 11.1135 32.4943 11.6336C34.2391 11.8745 35.7575 12.6081 37.2539 13.4676C38.7999 14.3545 40.4232 15.1155 41.9637 16.0023C44.454 17.4312 47.0822 18.6302 48.6835 21.258C49.7767 23.0591 50.1301 25.0026 50.2019 26.9735C50.3234 30.4444 50.4559 33.9427 49.9645 37.3917C49.6332 39.7348 48.4516 41.7714 46.6018 43.2823C44.476 45.0178 41.914 46.0799 39.5287 47.4047C37.922 48.2971 36.3649 49.3427 34.6532 49.9668C32.6875 50.6895 30.5452 50.5745 28.4912 50.1749C26.3101 49.7479 24.5046 48.4175 22.6383 47.3226C20.0321 45.7952 17.0781 44.7495 14.991 42.4393C13.7321 41.0432 12.9811 39.3844 12.5836 37.5395C12.1142 35.3606 12.5504 33.1707 12.3793 31.5776L12.3848 31.5721Z" fill="#97CB9D"/>
<path d="M33.2176 61.9673C25.9844 61.9673 20.391 62.0713 14.8088 61.9289C11.5566 61.8468 8.63566 60.626 6.03501 58.5894C4.24051 57.1824 2.88221 55.447 1.76685 53.5364C1.19813 52.5674 0.894448 51.4232 0.596284 50.3282C-0.34238 46.8683 0.110387 43.3317 0.0993442 39.8224C0.0938227 38.2841 0.888926 37.1946 2.62821 37.4027C3.57792 37.5176 4.38959 38.1308 4.42272 39.1764C4.4945 41.6126 4.36198 44.0489 4.47793 46.4796C4.59389 48.8227 5.3393 50.9578 6.79699 52.9068C8.14977 54.7189 9.87249 55.9616 11.8823 56.8211C13.4615 57.5 15.1953 57.5219 16.9125 57.4124C17.1609 57.396 17.5751 57.3795 17.8235 57.3795C27.9004 57.3795 37.9827 57.4617 48.054 57.3303C50.6602 57.2974 52.8467 55.8631 54.6633 53.9415C56.7229 51.7626 57.7278 49.184 57.7885 46.2496C57.8327 44.2131 57.6891 42.1711 57.667 40.129C57.645 38.2786 58.6664 37.2713 60.5106 37.3972C61.5873 37.4684 62.2499 38.2512 62.2831 39.2257C62.3714 42.1437 62.4432 45.0781 62.2665 47.9906C62.1616 49.7643 61.5266 51.4724 60.7481 53.1312C59.8536 55.0309 58.6609 56.6843 57.0817 57.9982C54.5915 60.0676 51.8087 61.5731 48.435 61.8194C42.8141 62.23 37.1931 61.803 33.2176 61.9673Z" fill="#504F4F"/>
<path d="M31.4894 0.076544C37.0607 0.076544 42.6374 -0.131491 48.1921 0.142239C52.51 0.355749 56.0714 2.46348 58.8045 5.85774C60.2733 7.68626 61.2561 9.70639 61.8304 11.9893C62.7414 15.6025 62.2279 19.2486 62.239 22.8783C62.239 24.0718 61.0408 24.7999 59.7266 24.6138C58.672 24.4659 57.9598 23.7816 57.9211 22.6648C57.8107 19.6154 57.8493 16.5551 57.6064 13.5112C57.4904 12.0441 56.7284 10.6918 55.8726 9.43266C54.575 7.51654 52.8523 6.10957 50.7376 5.26648C49.5063 4.77924 48.1203 4.41791 46.8062 4.40696C36.2656 4.34127 25.7305 4.29747 15.1898 4.42339C12.2689 4.45624 9.7787 5.84679 7.68603 7.98189C4.67126 11.0531 4.22954 14.7978 4.44488 18.7833C4.51114 19.9932 4.43384 21.2086 4.46144 22.4184C4.48905 23.6667 3.78781 24.4112 2.66694 24.5919C1.18716 24.8327 0.209848 23.8966 0.138068 22.5827C-0.0110136 19.8563 -0.0220567 17.1026 0.171198 14.3762C0.386538 11.3324 1.46324 8.48008 3.38474 6.08767C5.05777 4.00732 7.14492 2.39778 9.70139 1.30286C13.318 -0.240984 17.0837 0.0710694 20.8384 0.0217978C24.3887 -0.0219991 27.9391 0.0108486 31.4839 0.0108486C31.4839 0.0327471 31.4839 0.0546455 31.4839 0.076544H31.4894Z" fill="#504F4F"/>
<path d="M43.5651 22.32C43.0239 22.6375 42.4718 22.9605 41.9251 23.278C39.9705 24.4058 38.0104 25.5336 36.0557 26.6614C34.576 27.5154 33.1624 28.5227 31.5943 29.1797C30.5121 29.6395 29.706 28.5008 28.817 28.0136C26.8347 26.9406 24.9132 25.7635 22.9531 24.6467C21.6334 23.8967 20.2917 23.174 18.9665 22.4295C18.8948 22.3912 18.8395 22.1557 18.8782 22.1174C19.1432 21.8656 19.4083 21.5864 19.723 21.4112C21.639 20.3217 23.5163 19.1611 25.4985 18.214C27.4752 17.2669 29.2421 15.7176 31.6937 15.9694C33.2784 16.1337 34.5263 16.9713 35.8459 17.7049C37.0993 18.4002 38.3693 19.0626 39.6171 19.7633C40.8926 20.4805 42.1571 21.2196 43.4215 21.9587C43.4767 21.9915 43.4822 22.1065 43.5651 22.309V22.32Z" fill="white"/>
<path d="M33.3446 39.4007C33.3446 37.9609 33.5268 36.4937 33.3005 35.0867C32.9857 33.1433 34.333 32.656 35.5864 31.9607C37.2484 31.041 38.8828 30.0829 40.5282 29.1249C42.1239 28.1997 43.7086 27.2526 45.3043 26.3328C45.4479 26.2507 45.6632 26.1631 45.6577 26.508C45.6411 29.7873 45.6687 33.0666 45.608 36.3459C45.5749 37.9883 43.5982 40.2274 42.1018 40.9063C40.4674 41.6453 38.9545 42.6362 37.3864 43.5176C36.122 44.2239 34.852 44.9246 33.5765 45.6089C33.5765 45.6089 33.3557 45.3516 33.3557 45.2148C33.3391 43.2768 33.3446 41.3388 33.3446 39.4007Z" fill="white"/>
<path d="M29.0157 39.4117C29.0157 40.9829 29.0267 42.5486 29.0157 44.1198C29.0157 44.5907 28.9439 45.0615 28.8997 45.5323C28.447 45.3188 27.9832 45.1272 27.547 44.8863C25.7911 43.9228 24.0353 42.9592 22.2904 41.9628C20.2585 40.8022 17.945 39.9153 17.0671 37.4956C16.7523 36.6196 16.7302 35.6068 16.7137 34.6542C16.6695 32.2837 16.6971 29.9132 16.7082 27.5427C16.7082 27.1212 16.7578 26.6996 16.791 26.2781C17.2161 26.4861 17.6523 26.6722 18.0554 26.9022C19.7395 27.8657 21.4125 28.8511 23.0966 29.8202C25.007 30.9205 26.923 32.0045 28.8224 33.1159C28.9494 33.187 29.0102 33.4553 29.0157 33.6305C29.0267 35.5575 29.0267 37.4846 29.0267 39.4117H29.0157Z" fill="white"/>
</g>
<defs>
<clipPath id="clip0_291_36">
<rect width="258" height="62" fill="white"/>
</clipPath>
</defs>
</svg>
