<svg width="31" height="23" viewBox="0 0 31 23" fill="none" xmlns="http://www.w3.org/2000/svg">
<path d="M26.4102 3.06768C23.798 0.96563 19.6656 0.609307 19.4888 0.596489C19.2145 0.573418 18.953 0.727227 18.8402 0.981011C18.83 0.996392 18.7402 1.20403 18.6403 1.52703C20.368 1.81927 22.4906 2.4063 24.4106 3.59832C24.7183 3.78802 24.8131 4.19305 24.6234 4.50066C24.4978 4.70318 24.285 4.81341 24.0646 4.81341C23.9467 4.81341 23.8262 4.78008 23.7185 4.71343C20.4167 2.66521 16.2947 2.56268 15.5 2.56268C14.7053 2.56268 10.5807 2.66521 7.28149 4.71343C6.97388 4.90569 6.56885 4.81084 6.37915 4.50323C6.18689 4.19305 6.28174 3.79058 6.58936 3.59832C8.5094 2.40887 10.632 1.81927 12.3597 1.52959C12.2598 1.20403 12.17 0.998956 12.1624 0.981011C12.047 0.727227 11.7881 0.568291 11.5112 0.596489C11.3344 0.609307 7.20203 0.96563 4.55396 3.09588C3.17224 4.37505 0.40625 11.8502 0.40625 18.3127C0.40625 18.428 0.437012 18.5383 0.493409 18.6382C2.40064 21.9913 7.60706 22.868 8.79395 22.9064C8.79907 22.9064 8.80676 22.9064 8.81445 22.9064C9.02466 22.9064 9.22205 22.8064 9.34509 22.6373L10.5448 20.9864C7.30713 20.1507 5.65369 18.7305 5.55884 18.6459C5.28711 18.4075 5.26148 17.9922 5.50244 17.7205C5.74084 17.4488 6.15613 17.4231 6.42786 17.6616C6.46631 17.6974 9.51172 20.2814 15.5 20.2814C21.4985 20.2814 24.5439 17.6872 24.5747 17.6616C24.8464 17.4257 25.2592 17.4488 25.5001 17.7231C25.7385 17.9948 25.7129 18.4075 25.4412 18.6459C25.3463 18.7305 23.6929 20.1507 20.4552 20.9864L21.6549 22.6373C21.778 22.8064 21.9753 22.9064 22.1855 22.9064C22.1932 22.9064 22.2009 22.9064 22.2061 22.9064C23.3929 22.868 28.5994 21.9913 30.5066 18.6382C30.563 18.5383 30.5938 18.428 30.5938 18.3127C30.5938 11.8502 27.8278 4.37505 26.4102 3.06768ZM11.2344 15.6877C9.96545 15.6877 8.9375 14.5136 8.9375 13.0627C8.9375 11.6117 9.96545 10.4377 11.2344 10.4377C12.5033 10.4377 13.5312 11.6117 13.5312 13.0627C13.5312 14.5136 12.5033 15.6877 11.2344 15.6877ZM19.7656 15.6877C18.4967 15.6877 17.4688 14.5136 17.4688 13.0627C17.4688 11.6117 18.4967 10.4377 19.7656 10.4377C21.0345 10.4377 22.0625 11.6117 22.0625 13.0627C22.0625 14.5136 21.0345 15.6877 19.7656 15.6877Z" fill="white" fill-opacity="0.25"/>
</svg>
