<svg width="29" height="29" viewBox="0 0 29 29" fill="none" xmlns="http://www.w3.org/2000/svg">
<path d="M7.375 0.625C3.75819 0.625 0.8125 3.57069 0.8125 7.1875V21.625C0.8125 25.2418 3.75819 28.1875 7.375 28.1875H21.8125C25.4293 28.1875 28.375 25.2418 28.375 21.625V7.1875C28.375 3.57069 25.4293 0.625 21.8125 0.625H7.375ZM6.71875 8.5H22.4688C22.5869 8.5 22.6983 8.51333 22.8033 8.54614L16.3523 14.9907C15.381 15.962 13.8 15.962 12.8288 14.9907L6.38422 8.54614C6.48922 8.51333 6.60063 8.5 6.71875 8.5ZM5.45239 9.47797L10.3871 14.4062L5.45239 19.3345C5.41958 19.2295 5.40625 19.1181 5.40625 19V9.8125C5.40625 9.69438 5.41958 9.58297 5.45239 9.47797ZM23.7351 9.47797C23.7679 9.58297 23.7812 9.69438 23.7812 9.8125V19C23.7812 19.1181 23.7679 19.2295 23.7351 19.3345L18.794 14.4062L23.7351 9.47797ZM11.3125 15.3317L11.897 15.9225C12.6385 16.6641 13.6161 17.0312 14.5873 17.0312C15.5652 17.0312 16.5361 16.6641 17.2777 15.9225L17.8686 15.3317L22.8033 20.2664C22.6983 20.2992 22.5869 20.3125 22.4688 20.3125H6.71875C6.60063 20.3125 6.48922 20.2992 6.38422 20.2664L11.3125 15.3317Z" fill="white" fill-opacity="0.25"/>
</svg>
