<svg width="29" height="29" viewBox="0 0 29 29" fill="none" xmlns="http://www.w3.org/2000/svg">
<path d="M24.9062 0.625H3.90625C2.095 0.625 0.625 2.095 0.625 3.90625V24.9062C0.625 26.7175 2.095 28.1875 3.90625 28.1875H24.9062C26.7175 28.1875 28.1875 26.7175 28.1875 24.9062V3.90625C28.1875 2.095 26.7175 0.625 24.9062 0.625ZM22.7538 19.6562L20.3059 19.6497C20.3059 19.6497 20.2534 19.6562 20.1681 19.6562C19.9712 19.6562 19.5644 19.6037 19.0853 19.2756C18.2256 18.6784 17.4053 17.1953 16.7556 17.1953C16.7097 17.1953 16.6703 17.2019 16.6309 17.215C16.0666 17.3922 15.8959 17.9566 15.8959 18.6456C15.8959 18.8884 15.7253 19 15.2659 19H13.9994C12.5819 19 11.2103 18.9672 9.66813 17.2806C7.3975 14.7934 5.27125 10.3703 5.27125 10.3703C5.27125 10.3703 5.15313 10.1144 5.27781 9.96344C5.39594 9.82562 5.67156 9.8125 5.77656 9.8125C5.80281 9.8125 5.81594 9.8125 5.81594 9.8125H8.44094C8.44094 9.8125 8.68375 9.85844 8.86094 9.98969C9.01187 10.1013 9.09062 10.3047 9.09062 10.3047C9.09062 10.3047 9.53688 11.1709 10.0947 12.1487C11.0331 13.7631 11.5384 14.3013 11.8994 14.3013C11.9584 14.3013 12.0175 14.2881 12.0766 14.2553C12.6147 13.96 12.4572 11.5713 12.4572 11.5713C12.4572 11.5713 12.4638 10.705 12.1816 10.3244C11.965 10.0225 11.5516 9.93719 11.3678 9.91094C11.2234 9.89125 11.4597 9.55 11.7747 9.3925C12.1816 9.19563 12.8575 9.15625 13.6712 9.15625H14.065C14.8328 9.16937 14.8525 9.24813 15.1544 9.32031C16.06 9.53688 15.7516 10.3834 15.7516 12.4112C15.7516 13.0609 15.6334 13.9731 16.0994 14.2816C16.1322 14.3012 16.1781 14.3144 16.2372 14.3144C16.5391 14.3144 17.1887 13.9272 18.2256 12.175C18.8031 11.1775 19.2494 10.1866 19.2494 10.1866C19.2494 10.1866 19.3478 10.0094 19.4987 9.9175C19.6431 9.83219 19.6431 9.83219 19.8334 9.83219H19.8531C20.0631 9.83219 22.15 9.8125 22.6094 9.8125H22.6619C23.1016 9.8125 23.5019 9.81906 23.5741 10.0881C23.6791 10.495 23.2525 11.2234 22.1303 12.7328C20.2797 15.2069 20.0697 15.0231 21.6053 16.4538C23.0753 17.8188 23.3772 18.4816 23.4297 18.5669C24.04 19.5775 22.7538 19.6562 22.7538 19.6562Z" fill="white" fill-opacity="0.25"/>
</svg>
