<svg width="31" height="31" viewBox="0 0 31 31" fill="none" xmlns="http://www.w3.org/2000/svg">
<path d="M30.6093 28.7905L21.7149 19.8825C23.4684 17.7779 24.523 15.0883 24.523 12.1508C24.523 5.44908 19.0276 0 12.2679 0C5.50815 0 0 5.45544 0 12.1571C0 18.8588 5.49544 24.3079 12.2551 24.3079C15.1268 24.3079 17.7696 23.3223 19.8662 21.6755L28.7923 30.609C29.3133 31.1303 30.0883 31.1303 30.6093 30.609C31.1302 30.0876 31.1302 29.3119 30.6093 28.7905ZM2.60478 12.1571C2.60478 6.89242 6.9376 2.61327 12.2551 2.61327C17.5727 2.61327 21.9055 6.89242 21.9055 12.1571C21.9055 17.4218 17.5727 21.701 12.2551 21.701C6.9376 21.701 2.60478 17.4154 2.60478 12.1571Z" fill="#D9D9D9"/>
</svg>
