<svg
width="35"
height="35"
viewBox="0 0 35 35"
fill="none"
xmlns="http://www.w3.org/2000/svg"
>
<path
d="M35 9.84383C30.2032 11.4995 26.5488 12.6786 23.3335 16.4064C20.469 19.7281 16.3333 20.8794 11.667 18.6899V30.6249H9.33345V1.09376C9.33337 0.489137 9.85519 0 10.5 0C11.1448 0 11.6669 0.489137 11.6669 1.09376C14.2575 4.62491 18.7601 5.40698 23.3334 5.46887C30.3332 5.5648 35 9.84383 35 9.84383ZM13.9999 24.3531V26.5787C16.7525 27.1066 18.6667 28.2263 18.6667 29.5316C18.6667 31.3431 15.0093 32.8129 10.5 32.8129C5.99058 32.8129 2.33355 31.3431 2.33355 29.5312C2.33355 28.2263 4.24747 27.1067 6.99997 26.5787V24.3531C2.76196 25.0409 0 26.9679 0 29.5311C0 32.7505 4.31802 35 10.5 35C16.6817 35 21 32.7504 21 29.5311C21.0001 26.9679 18.2379 25.0409 13.9999 24.3531Z"
fill="#80E0A1"
/>
</svg>