<svg
width="54"
height="54"
viewBox="0 0 54 54"
fill="none"
xmlns="http://www.w3.org/2000/svg"
>
<path
d="M53.1 1.9125C53.0051 1.68528 52.8719 1.476 52.7063 1.29375C52.524 1.12813 52.3147 0.994953 52.0875 0.9C51.8621 0.803923 51.62 0.752962 51.375 0.75H36.375C35.8777 0.75 35.4008 0.947544 35.0492 1.29917C34.6976 1.65081 34.5 2.12772 34.5 2.625C34.5 3.12228 34.6976 3.59919 35.0492 3.95083C35.4008 4.30246 35.8777 4.5 36.375 4.5H46.8563L31.2938 20.0438C31.118 20.2181 30.9785 20.4254 30.8833 20.6539C30.7881 20.8824 30.7391 21.1275 30.7391 21.375C30.7391 21.6225 30.7881 21.8676 30.8833 22.0961C30.9785 22.3246 31.118 22.5319 31.2938 22.7062C31.4681 22.882 31.6754 23.0215 31.9039 23.1167C32.1324 23.2119 32.3775 23.2609 32.625 23.2609C32.8725 23.2609 33.1176 23.2119 33.3461 23.1167C33.5746 23.0215 33.782 22.882 33.9563 22.7062L49.5 7.14375V17.625C49.5 18.1223 49.6975 18.5992 50.0492 18.9508C50.4008 19.3025 50.8777 19.5 51.375 19.5C51.8723 19.5 52.3492 19.3025 52.7008 18.9508C53.0525 18.5992 53.25 18.1223 53.25 17.625V2.625C53.247 2.37998 53.1961 2.13792 53.1 1.9125Z"
fill="#CCCCCC"
fill-opacity="0.66"
/>
<path
d="M7.14375 4.5H17.625C18.1223 4.5 18.5992 4.30246 18.9508 3.95083C19.3025 3.59919 19.5 3.12228 19.5 2.625C19.5 2.12772 19.3025 1.65081 18.9508 1.29917C18.5992 0.947544 18.1223 0.75 17.625 0.75H2.625C2.37998 0.752962 2.13792 0.803923 1.9125 0.9C1.68528 0.994953 1.476 1.12813 1.29375 1.29375C1.12813 1.476 0.994953 1.68528 0.9 1.9125C0.803923 2.13792 0.752962 2.37998 0.75 2.625V17.625C0.75 18.1223 0.947544 18.5992 1.29917 18.9508C1.65081 19.3025 2.12772 19.5 2.625 19.5C3.12228 19.5 3.59919 19.3025 3.95083 18.9508C4.30246 18.5992 4.5 18.1223 4.5 17.625V7.14375L20.0438 22.7062C20.2181 22.882 20.4254 23.0215 20.6539 23.1167C20.8824 23.2119 21.1275 23.2609 21.375 23.2609C21.6225 23.2609 21.8676 23.2119 22.0961 23.1167C22.3246 23.0215 22.5319 22.882 22.7062 22.7062C22.882 22.5319 23.0215 22.3246 23.1167 22.0961C23.2119 21.8676 23.2609 21.6225 23.2609 21.375C23.2609 21.1275 23.2119 20.8824 23.1167 20.6539C23.0215 20.4254 22.882 20.2181 22.7062 20.0438L7.14375 4.5Z"
fill="#CCCCCC"
fill-opacity="0.66"
/>
<path
d="M51.375 34.5C50.8777 34.5 50.4008 34.6975 50.0492 35.0492C49.6975 35.4008 49.5 35.8777 49.5 36.375V46.8562L33.9562 31.2937C33.7814 31.1189 33.5739 30.9802 33.3454 30.8856C33.117 30.791 32.8722 30.7423 32.625 30.7423C32.3777 30.7423 32.1329 30.791 31.9045 30.8856C31.6761 30.9802 31.4686 31.1189 31.2937 31.2937C31.1189 31.4686 30.9802 31.6761 30.8856 31.9045C30.791 32.1329 30.7423 32.3778 30.7423 32.625C30.7423 32.8722 30.791 33.117 30.8856 33.3455C30.9802 33.5739 31.1189 33.7814 31.2937 33.9562L46.8562 49.5H36.375C35.8777 49.5 35.4008 49.6975 35.0492 50.0492C34.6975 50.4008 34.5 50.8777 34.5 51.375C34.5 51.8723 34.6975 52.3492 35.0492 52.7008C35.4008 53.0525 35.8777 53.25 36.375 53.25H51.375C51.62 53.247 51.8621 53.1961 52.0875 53.1C52.3202 53.0158 52.5315 52.8814 52.7064 52.7065C52.8814 52.5315 53.0158 52.3202 53.1 52.0875C53.1961 51.8621 53.247 51.62 53.25 51.375V36.375C53.25 35.8777 53.0524 35.4008 52.7008 35.0492C52.3492 34.6975 51.8723 34.5 51.375 34.5Z"
fill="#CCCCCC"
fill-opacity="0.66"
/>
<path
d="M20.0438 31.2937L4.5 46.8562V36.375C4.5 35.8777 4.30246 35.4008 3.95083 35.0492C3.59919 34.6975 3.12228 34.5 2.625 34.5C2.12772 34.5 1.65081 34.6975 1.29917 35.0492C0.947544 35.4008 0.75 35.8777 0.75 36.375V51.375C0.752962 51.62 0.803923 51.8621 0.9 52.0875C0.994953 52.3147 1.12813 52.524 1.29375 52.7062C1.476 52.8719 1.68528 53.005 1.9125 53.1C2.13792 53.1961 2.37998 53.247 2.625 53.25H17.625C18.1223 53.25 18.5992 53.0525 18.9508 52.7008C19.3025 52.3492 19.5 51.8723 19.5 51.375C19.5 50.8777 19.3025 50.4008 18.9508 50.0492C18.5992 49.6975 18.1223 49.5 17.625 49.5H7.14375L22.7062 33.9562C23.0593 33.6032 23.2577 33.1243 23.2577 32.625C23.2577 32.1257 23.0593 31.6468 22.7062 31.2937C22.3532 30.9407 21.8743 30.7423 21.375 30.7423C20.8757 30.7423 20.3968 30.9407 20.0438 31.2937Z"
fill="#CCCCCC"
fill-opacity="0.66"
/>
</svg>
