<svg
width="35"
height="35"
viewBox="0 0 35 35"
fill="none"
xmlns="http://www.w3.org/2000/svg"
>
<path
d="M17.5 6.5625C9.86706 6.5625 3.2511 11.0073 0 17.5C3.2511 23.9927 9.86706 28.4375 17.5 28.4375C25.1327 28.4375 31.7488 23.9927 35 17.5C31.7489 11.0073 25.1327 6.5625 17.5 6.5625ZM26.1287 12.3629C28.185 13.6745 29.9275 15.4314 31.2364 17.5C29.9276 19.5686 28.1849 21.3255 26.1287 22.6371C23.5449 24.2851 20.5611 25.1562 17.5 25.1562C14.4389 25.1562 11.4551 24.2851 8.87134 22.6371C6.81509 21.3254 5.07261 19.5686 3.76373 17.5C5.07254 15.4313 6.81509 13.6745 8.87134 12.3629C9.00525 12.2775 9.14054 12.1947 9.27664 12.1134C8.93628 13.0475 8.75 14.0556 8.75 15.1074C8.75 19.9398 12.6675 23.8574 17.5 23.8574C22.3324 23.8574 26.25 19.9398 26.25 15.1074C26.25 14.0556 26.0637 13.0475 25.7234 12.1133C25.8593 12.1946 25.9947 12.2775 26.1287 12.3629ZM17.5 14.0137C17.5 15.8259 16.031 17.2949 14.2188 17.2949C12.4065 17.2949 10.9375 15.8259 10.9375 14.0137C10.9375 12.2015 12.4065 10.7324 14.2188 10.7324C16.031 10.7324 17.5 12.2015 17.5 14.0137Z"
fill="#80E0A1"
/>
</svg>