<svg width="56" height="70" viewBox="0 0 56 70" fill="none" xmlns="http://www.w3.org/2000/svg">
<path d="M19.7021 61.6457C19.7019 61.664 19.7007 61.6821 19.7007 61.7004C19.7007 66.2842 23.4165 70 28.0002 70C32.584 70 36.2998 66.2842 36.2998 61.7004C36.2998 61.6821 36.2986 61.664 36.2984 61.6457H19.7021Z" fill="#80E0A1"/>
<path d="M54.4988 51.2713L47.0292 40.2986C47.0292 36.9397 47.0292 28.7322 47.0292 26.609C47.0292 17.3768 40.4542 9.68117 31.7316 7.94692V3.73138C31.7315 1.6707 30.0609 0 28.0001 0C25.9393 0 24.2687 1.6707 24.2687 3.73138V7.94707C15.5461 9.68147 8.97121 17.3771 8.97121 26.6092C8.97121 30.2233 8.97121 38.2039 8.97121 40.2988L1.50159 51.2715C0.714774 52.4272 0.631566 53.9233 1.28534 55.1592C1.93911 56.3951 3.22258 57.1681 4.6208 57.1681H51.3794C52.7776 57.1681 54.0611 56.395 54.7149 55.1592C55.3688 53.9231 55.2854 52.4271 54.4988 51.2713Z" fill="#80E0A1"/>
</svg>
