<svg width="44" height="44" viewBox="0 0 44 44" fill="none" xmlns="http://www.w3.org/2000/svg">
<path d="M39.8265 15.8352L11.905 13.2314C11.7518 13.2134 11.6076 13.2134 11.4635 13.2224L10.3463 7.81649C10.3192 7.70837 10.2922 7.60025 10.2472 7.51015C10.076 7.07768 9.71557 6.7263 9.23805 6.58214L3.91323 5.01443C3.09334 4.77116 2.22839 5.23967 1.98513 6.06858C1.74186 6.88847 2.21038 7.75342 3.03928 7.99668L7.48113 9.30311L12.824 35.0532C12.9231 35.8101 13.5718 36.3957 14.3646 36.3957L37.3397 36.3867C38.1957 36.3867 38.8894 35.6929 38.8894 34.837C38.8894 33.9811 38.1957 33.2873 37.3397 33.2873L15.635 33.2963L14.8962 29.7374H37.7452C38.9435 29.7374 39.9796 28.9446 40.1959 27.8544L42.0429 18.5472C42.2861 17.2137 41.277 15.9704 39.8265 15.8352Z" fill="#80E0A1"/>
<path d="M18.7796 44C20.4913 44 21.8789 42.6124 21.8789 40.9007C21.8789 39.1889 20.4913 37.8013 18.7796 37.8013C17.0678 37.8013 15.6802 39.1889 15.6802 40.9007C15.6802 42.6124 17.0678 44 18.7796 44Z" fill="#80E0A1"/>
<path d="M33.5916 44C35.3033 44 36.691 42.6124 36.691 40.9007C36.691 39.1889 35.3033 37.8013 33.5916 37.8013C31.8798 37.8013 30.4922 39.1889 30.4922 40.9007C30.4922 42.6124 31.8798 44 33.5916 44Z" fill="#80E0A1"/>
</svg>
