<svg width="64" height="63" viewBox="0 0 64 63" fill="none" xmlns="http://www.w3.org/2000/svg">
<path d="M60.3602 18.1924L15.9396 14.0499C15.696 14.0213 15.4666 14.0213 15.2373 14.0356L13.4599 5.43531C13.4169 5.26331 13.3739 5.0913 13.3022 4.94796C13.0299 4.25994 12.4565 3.70092 11.6968 3.47158L3.22553 0.977491C1.92115 0.590477 0.545107 1.33584 0.158094 2.65455C-0.22892 3.95893 0.51644 5.33498 1.83515 5.72199L8.90173 7.8004L17.4017 48.7665C17.5594 49.9705 18.5914 50.9022 19.8528 50.9022L56.4041 50.8879C57.7658 50.8879 58.8695 49.7842 58.8695 48.4225C58.8695 47.0608 57.7658 45.9571 56.4041 45.9571L21.8739 45.9714L20.6985 40.3095H57.0491C58.9555 40.3095 60.6039 39.0482 60.9479 37.3138L63.8863 22.5069C64.2733 20.3855 62.6679 18.4074 60.3602 18.1924Z" fill="#80E0A1"/>
<path d="M26.8764 63C29.5996 63 31.8072 60.7924 31.8072 58.0691C31.8072 55.3459 29.5996 53.1383 26.8764 53.1383C24.1532 53.1383 21.9456 55.3459 21.9456 58.0691C21.9456 60.7924 24.1532 63 26.8764 63Z" fill="#80E0A1"/>
<path d="M50.4411 63C53.1643 63 55.3719 60.7924 55.3719 58.0691C55.3719 55.3459 53.1643 53.1383 50.4411 53.1383C47.7179 53.1383 45.5103 55.3459 45.5103 58.0691C45.5103 60.7924 47.7179 63 50.4411 63Z" fill="#80E0A1"/>
</svg>
