<svg width="50" height="50" viewBox="0 0 50 50" fill="none" xmlns="http://www.w3.org/2000/svg">
<path d="M41.7018 6.23679H31.8406C31.5193 2.74435 28.5747 0 25 0C21.4253 0 18.4807 2.74435 18.1594 6.23679H8.29813C5.38372 6.23679 3.0127 8.60781 3.0127 11.5222C3.0127 14.3657 5.27006 16.6907 8.08665 16.8023V43.7632C8.08665 47.2022 10.8844 50 14.3234 50H35.6764C39.1154 50 41.9132 47.2022 41.9132 43.7632V16.8022C44.7298 16.6907 46.9872 14.3657 46.9872 11.5221C46.9872 8.6077 44.6162 6.23679 41.7018 6.23679ZM18.1245 41.1819C18.1245 42.0576 17.4146 42.7676 16.5389 42.7676C15.6632 42.7676 14.9534 42.0576 14.9534 41.1819V20.3401C14.9534 19.4644 15.6633 18.7545 16.5389 18.7545C17.4147 18.7545 18.1245 19.4645 18.1245 20.3401V41.1819ZM26.5855 41.1819C26.5855 42.0576 25.8756 42.7676 25 42.7676C24.1243 42.7676 23.4144 42.0576 23.4144 41.1819V20.3401C23.4144 19.4644 24.1244 18.7545 25 18.7545C25.8757 18.7545 26.5855 19.4645 26.5855 20.3401V41.1819ZM35.0466 41.1819C35.0466 42.0576 34.3366 42.7676 33.461 42.7676C32.5853 42.7676 31.8753 42.0576 31.8753 41.1819V20.3401C31.8753 19.4644 32.5853 18.7545 33.461 18.7545C34.3368 18.7545 35.0466 19.4645 35.0466 20.3401V41.1819Z" fill="#E08C80"/>
</svg>
