<svg width="50" height="50" viewBox="0 0 50 50" fill="none" xmlns="http://www.w3.org/2000/svg">
<path d="M49.4347 8.88338L41.1173 0.564967C40.7555 0.203152 40.2648 0 39.7533 0C39.2419 0 38.7512 0.203152 38.3897 0.56471L30.0707 8.88364C30.0697 8.88467 30.0687 8.88621 30.0674 8.88724L14.1115 24.8431C13.7641 25.1908 13.5625 25.6573 13.5476 26.1484L13.2865 34.7274C13.2703 35.2589 13.4745 35.7735 13.8505 36.1497C14.2128 36.5118 14.7035 36.7144 15.2142 36.7144C15.2337 36.7144 15.2535 36.7141 15.2731 36.7134L23.8517 36.4516C24.3426 36.4367 24.8094 36.2351 25.1568 35.8879L49.4347 11.6105C50.1879 10.8578 50.1879 9.63659 49.4347 8.88338ZM39.7526 15.8373L34.162 10.2476L39.7533 4.65629L45.3434 10.2471L39.7526 15.8373ZM22.9699 32.62L17.2043 32.7961L17.3797 27.0302L31.4344 12.9752L37.0252 18.5652L22.9699 32.62Z" fill="#80E0A1"/>
<path d="M33.9929 30.1107C32.9278 30.1107 32.0643 30.974 32.0643 32.0393V46.1427H3.85755V17.936H17.9609C19.026 17.936 19.8896 17.0727 19.8896 16.0073C19.8896 14.9419 19.026 14.0787 17.9609 14.0787H1.9289C0.863767 14.0787 0.000244141 14.9419 0.000244141 16.0073V48.0711C0.000244141 49.1365 0.863767 49.9997 1.9289 49.9997H33.9927C35.0578 49.9997 35.9213 49.1365 35.9213 48.0711V32.0391C35.9216 30.974 35.058 30.1107 33.9929 30.1107Z" fill="#80E0A1"/>
</svg>
