<svg width="50" height="50" viewBox="0 0 50 50" fill="none" xmlns="http://www.w3.org/2000/svg">
<path d="M6.86439 32.7262C7.67813 33.5396 8.99712 33.5394 9.81056 32.7257C10.624 31.912 10.6238 30.593 9.81007 29.7795L5.0297 25.0008L12.2561 17.7745C16.618 13.4125 22.8102 11.6353 28.7361 12.8838C29.8619 13.121 30.9668 12.4007 31.204 11.2748C31.4412 10.149 30.7208 9.04405 29.595 8.80686C22.3053 7.27098 14.6781 9.45995 9.3098 14.8283L0.610156 23.5279C-0.203483 24.3416 -0.203385 25.6609 0.610449 26.4743L6.86439 32.7262Z" fill="#80E0A1"/>
<path d="M49.3897 23.5257L43.1358 17.2739C42.322 16.4604 41.0031 16.4606 40.1896 17.2744C39.3762 18.0881 39.3764 19.4071 40.1901 20.2205L44.9705 24.9993L37.7441 32.2256C33.3822 36.5876 27.1899 38.3648 21.2641 37.1162C20.1383 36.879 19.0333 37.5994 18.7962 38.7253C18.559 39.8511 19.2793 40.956 20.4052 41.1932C27.6949 42.7291 35.322 40.5401 40.6904 35.1718L49.39 26.4721C50.2037 25.6584 50.2036 24.3391 49.3897 23.5257Z" fill="#80E0A1"/>
<path d="M14.5837 25C14.5837 26.1506 15.5164 27.0833 16.667 27.0833C17.8175 27.0833 18.7502 26.1506 18.7502 25C18.7502 21.5487 21.5486 18.7503 24.9999 18.7503C26.1505 18.7503 27.0831 17.8176 27.0831 16.6671C27.0831 15.5165 26.1505 14.5839 24.9999 14.5839C19.2475 14.5838 14.5837 19.2475 14.5837 25Z" fill="#80E0A1"/>
<path d="M31.2497 25C31.2497 28.4514 28.4513 31.2498 25 31.2498C23.8494 31.2498 22.9167 32.1825 22.9167 33.333C22.9167 34.4835 23.8494 35.4162 25 35.4162C30.7524 35.4162 35.4162 30.7524 35.4162 24.9999C35.4162 23.8494 34.4836 22.9167 33.333 22.9167C32.1824 22.9167 31.2497 23.8495 31.2497 25Z" fill="#80E0A1"/>
<path d="M49.3887 0.611193C48.5752 -0.202348 47.2561 -0.202348 46.4426 0.611193L0.611132 46.4426C-0.202409 47.2562 -0.202409 48.5752 0.611132 49.3888C1.42467 50.2023 2.74376 50.2023 3.5573 49.3888L49.3887 3.55736C50.2024 2.74382 50.2024 1.42473 49.3887 0.611193Z" fill="#80E0A1"/>
</svg>
